<?xml version="1.0" encoding="UTF-8" standalone="no"?>
<!-- Created with Inkscape (http://www.inkscape.org/) -->

<svg
   xmlns:dc="http://purl.org/dc/elements/1.1/"
   xmlns:cc="http://creativecommons.org/ns#"
   xmlns:rdf="http://www.w3.org/1999/02/22-rdf-syntax-ns#"
   xmlns:svg="http://www.w3.org/2000/svg"
   xmlns="http://www.w3.org/2000/svg"
   xmlns:sodipodi="http://sodipodi.sourceforge.net/DTD/sodipodi-0.dtd"
   xmlns:inkscape="http://www.inkscape.org/namespaces/inkscape"
   width="128"
   height="128"
   id="svg2"
   version="1.1"
   inkscape:version="0.48.2 r9819"
   sodipodi:docname="icon.svg"
   inkscape:export-xdpi="90"
   inkscape:export-ydpi="90">
  <defs
     id="defs4" />
  <sodipodi:namedview
     id="base"
     pagecolor="#ffffff"
     bordercolor="#666666"
     borderopacity="1.0"
     inkscape:pageopacity="0.0"
     inkscape:pageshadow="2"
     inkscape:zoom="1.979899"
     inkscape:cx="38.989052"
     inkscape:cy="65.008581"
     inkscape:document-units="px"
     inkscape:current-layer="layer1"
     showgrid="false"
     fit-margin-top="0"
     fit-margin-left="0"
     fit-margin-right="0"
     fit-margin-bottom="0"
     inkscape:window-width="1024"
     inkscape:window-height="721"
     inkscape:window-x="-2"
     inkscape:window-y="-3"
     inkscape:window-maximized="1" />
  <metadata
     id="metadata7">
    <rdf:RDF>
      <cc:Work
         rdf:about="">
        <dc:format>image/svg+xml</dc:format>
        <dc:type
           rdf:resource="http://purl.org/dc/dcmitype/StillImage" />
        <dc:title></dc:title>
      </cc:Work>
    </rdf:RDF>
  </metadata>
  <g
     inkscape:label="Ebene 1"
     inkscape:groupmode="layer"
     id="layer1"
     transform="translate(-135.57487,-169.35769)">
    <path
       sodipodi:type="arc"
       style="fill:#ff0000;fill-opacity:1;fill-rule:evenodd;stroke:none"
       id="path2985"
       sodipodi:cx="168.1904"
       sodipodi:cy="193.22745"
       sodipodi:rx="14.647212"
       sodipodi:ry="14.647212"
       d="m 182.83761,193.22745 a 14.647212,14.647212 0 1 1 -29.29442,0 14.647212,14.647212 0 1 1 29.29442,0 z"
       transform="matrix(0.62132203,0.3741855,-0.41289437,0.68559675,153.20076,25.747582)" />
    <path
       transform="matrix(0.72529708,0,0,0.82533803,79.009446,62.412783)"
       sodipodi:type="arc"
       style="fill:#ff0000;fill-opacity:1;fill-rule:evenodd;stroke:none"
       id="path2985-7"
       sodipodi:cx="168.1904"
       sodipodi:cy="193.22745"
       sodipodi:rx="14.647212"
       sodipodi:ry="14.647212"
       d="m 182.83761,193.22745 a 14.647212,14.647212 0 1 1 -29.29442,0 14.647212,14.647212 0 1 1 29.29442,0 z" />
    <path
       transform="matrix(0.74602651,-0.01230084,0.09888152,0.80579903,79.128815,67.448429)"
       sodipodi:type="arc"
       style="fill:#ff0000;fill-opacity:1;fill-rule:evenodd;stroke:none"
       id="path2985-2"
       sodipodi:cx="168.1904"
       sodipodi:cy="193.22745"
       sodipodi:rx="14.647212"
       sodipodi:ry="14.647212"
       d="m 182.83761,193.22745 a 14.647212,14.647212 0 1 1 -29.29442,0 14.647212,14.647212 0 1 1 29.29442,0 z" />
    <path
       style="fill:#008000;fill-opacity:1;stroke:none"
       d="m 202.46277,207.23753 c 1.92454,-34.08451 44.6923,-27.84111 44.6923,-27.84111 0,0 -9.25113,30.42122 -44.6923,27.84111 z"
       id="path3062"
       inkscape:connector-curvature="0"
       sodipodi:nodetypes="czc" />
    <path
       style="fill:#008000;fill-opacity:1;stroke:none"
       d="m 194.76984,205.91898 c -25.91658,-11.37205 -19.04918,-33.70241 -19.04918,-33.70241 0,0 36.17383,1.84745 19.04918,33.70241 z"
       id="path3062-3"
       inkscape:connector-curvature="0"
       sodipodi:nodetypes="czc" />
    <path
       sodipodi:type="arc"
       style="fill:#ff0000;fill-opacity:1;fill-rule:evenodd;stroke:none"
       id="path2985-0"
       sodipodi:cx="168.1904"
       sodipodi:cy="193.22745"
       sodipodi:rx="14.647212"
       sodipodi:ry="14.647212"
       d="m 182.83761,193.22745 a 14.647212,14.647212 0 1 1 -29.29442,0 14.647212,14.647212 0 1 1 29.29442,0 z"
       transform="matrix(0.7252628,0.00705182,-0.00778134,0.80029004,44.407724,88.988038)" />
    <path
       transform="matrix(0.72529708,0,0,0.82533803,65.977196,86.066769)"
       sodipodi:type="arc"
       style="fill:#ff0000;fill-opacity:1;fill-rule:evenodd;stroke:none"
       id="path2985-7-8"
       sodipodi:cx="168.1904"
       sodipodi:cy="193.22745"
       sodipodi:rx="14.647212"
       sodipodi:ry="14.647212"
       d="m 182.83761,193.22745 a 14.647212,14.647212 0 1 1 -29.29442,0 14.647212,14.647212 0 1 1 29.29442,0 z" />
    <path
       transform="matrix(0.61000975,0.42964513,-0.39491117,0.70931998,207.10005,36.879068)"
       sodipodi:type="arc"
       style="fill:#ff0000;fill-opacity:1;fill-rule:evenodd;stroke:none"
       id="path2985-2-8"
       sodipodi:cx="168.1904"
       sodipodi:cy="193.22745"
       sodipodi:rx="14.647212"
       sodipodi:ry="14.647212"
       d="m 182.83761,193.22745 a 14.647212,14.647212 0 1 1 -29.29442,0 14.647212,14.647212 0 1 1 29.29442,0 z" />
    <path
       transform="matrix(0.72529708,0,0,0.82533803,88.900367,86.224261)"
       sodipodi:type="arc"
       style="fill:#ff0000;fill-opacity:1;fill-rule:evenodd;stroke:none"
       id="path2985-7-8-0"
       sodipodi:cx="168.1904"
       sodipodi:cy="193.22745"
       sodipodi:rx="14.647212"
       sodipodi:ry="14.647212"
       d="m 182.83761,193.22745 a 14.647212,14.647212 0 1 1 -29.29442,0 14.647212,14.647212 0 1 1 29.29442,0 z" />
    <path
       sodipodi:type="arc"
       style="fill:#ff0000;fill-opacity:1;fill-rule:evenodd;stroke:none"
       id="path2985-9"
       sodipodi:cx="168.1904"
       sodipodi:cy="193.22745"
       sodipodi:rx="14.647212"
       sodipodi:ry="14.647212"
       d="m 182.83761,193.22745 a 14.647212,14.647212 0 1 1 -29.29442,0 14.647212,14.647212 0 1 1 29.29442,0 z"
       transform="matrix(0.63764694,-0.20640697,0.22973354,0.69756424,22.173941,166.3753)" />
    <path
       transform="matrix(0.67034077,0,0,0.7473237,86.374134,121.94863)"
       sodipodi:type="arc"
       style="fill:#ff0000;fill-opacity:1;fill-rule:evenodd;stroke:none"
       id="path2985-7-7"
       sodipodi:cx="168.1904"
       sodipodi:cy="193.22745"
       sodipodi:rx="14.647212"
       sodipodi:ry="14.647212"
       d="m 182.83761,193.22745 a 14.647212,14.647212 0 1 1 -29.29442,0 14.647212,14.647212 0 1 1 29.29442,0 z" />
    <path
       transform="matrix(0.45920253,0.47982128,-0.48960979,0.5307263,241.1068,85.452464)"
       sodipodi:type="arc"
       style="fill:#ff0000;fill-opacity:1;fill-rule:evenodd;stroke:none"
       id="path2985-2-5"
       sodipodi:cx="168.1904"
       sodipodi:cy="193.22745"
       sodipodi:rx="14.647212"
       sodipodi:ry="14.647212"
       d="m 182.83761,193.22745 a 14.647212,14.647212 0 1 1 -29.29442,0 14.647212,14.647212 0 1 1 29.29442,0 z" />
    <path
       sodipodi:type="arc"
       style="fill:#ff0000;fill-opacity:1;fill-rule:evenodd;stroke:none"
       id="path2985-9-5"
       sodipodi:cx="168.1904"
       sodipodi:cy="193.22745"
       sodipodi:rx="14.647212"
       sodipodi:ry="14.647212"
       d="m 182.83761,193.22745 a 14.647212,14.647212 0 1 1 -29.29442,0 14.647212,14.647212 0 1 1 29.29442,0 z"
       transform="matrix(0.60236201,-0.19667525,0.21702096,0.66467532,43.828813,189.55541)" />
    <path
       transform="matrix(0.4249839,0.46304862,-0.45312529,0.5121742,225.05183,108.6246)"
       sodipodi:type="arc"
       style="fill:#ff0000;fill-opacity:1;fill-rule:evenodd;stroke:none"
       id="path2985-2-5-4"
       sodipodi:cx="168.1904"
       sodipodi:cy="193.22745"
       sodipodi:rx="14.647212"
       sodipodi:ry="14.647212"
       d="m 182.83761,193.22745 a 14.647212,14.647212 0 1 1 -29.29442,0 14.647212,14.647212 0 1 1 29.29442,0 z" />
  </g>
</svg>
